# xmcd CD database file
# Copyright (C) 1993-1998 Ti Kan
# 
# Track frame offsets:
#     150
#     11655
#     24615
#     36287
#     47605
#     58642
#     78832
#     91560
#     103975
#     117835
# 
# Disc length: 1871 seconds
# 
# Revision: 1
# Processed by: cddbd v1.4b41PL1 Copyright (c) Steve Scherf et al.
# Submitted via: DiscPlay 4.0.4
# 
DISCID=72074d0a
DTITLE=Walker, T-Bone - Rare T-Bone
DYEAR=1900
DGENRE=
TTITLE0=Cold Hearted Woman
TTITLE1=Confusion Blues
TTITLE2=Treat Me So Low Down
TTITLE3=Long Skirt Baby Blues
TTITLE4=Stormy Monday Blues
TTITLE5=Little Girl, Don't You Know
TTITLE6=Every Night I Have To Cry
TTITLE7=Flower Blues
TTITLE8=Party Girl
TTITLE9=Goin' To Funky Town
EXTD=
EXTT0=
EXTT1=
EXTT2=
EXTT3=
EXTT4=
EXTT5=
EXTT6=
EXTT7=
EXTT8=
EXTT9=
PLAYORDER=
